<svg xmlns="http://www.w3.org/2000/svg" width="840" height="304" viewBox="0 0 840 304" role="img" aria-label="Commits per product vertical: Emireq 462, Hashtora 298, Zymedics 290, Credorz 86, DataZonn 37, Takafulik 7">
<style>.t{font-family:ui-monospace, SFMono-Regular, Menlo, Consolas, monospace;}.h{font-family:-apple-system, BlinkMacSystemFont, Segoe UI, Helvetica, Arial, sans-serif;font-weight:600;}@media (prefers-reduced-motion: reduce){.bar,.val{animation:none !important;}.bar{transform:scaleX(1) !important;}.val{opacity:1 !important;}}.bar{transform-origin:left center;animation:grow .95s cubic-bezier(.2,.7,.3,1) both;}.val{animation:fade .5s ease-out both;}@keyframes grow{from{transform:scaleX(0);}to{transform:scaleX(1);}}@keyframes fade{from{opacity:0;}to{opacity:1;}}</style>
<text x="0" y="26" class="h" font-size="17" fill="#1B1B1F">Commits per product vertical</text>
<text x="0" y="48" class="t" font-size="11.5" fill="#6B6A66" letter-spacing="0.08em">1350 COMMITS  ·  17 REPOSITORIES  ·  MAR TO AUG 2026</text>
<line x1="0" y1="58" x2="840" y2="58" stroke="#DFDFE4" stroke-width="1"/>
<text x="0" y="89" class="t" font-size="12.5" fill="#1B1B1F">Emireq</text>
<rect x="132" y="77" width="634" height="15" rx="1.5" fill="#F1F1F4"/>
<rect class="bar" x="132" y="77" width="634" height="15" rx="1.5" fill="#D22D40" style="animation-delay:0.00s"/>
<text class="val t" x="776" y="89" font-size="12" fill="#6B6A66" style="animation-delay:0.55s">462</text>
<text x="0" y="123" class="t" font-size="12.5" fill="#1B1B1F">Hashtora</text>
<rect x="132" y="111" width="634" height="15" rx="1.5" fill="#F1F1F4"/>
<rect class="bar" x="132" y="111" width="409" height="15" rx="1.5" fill="#E0788A" style="animation-delay:0.09s"/>
<text class="val t" x="551" y="123" font-size="12" fill="#6B6A66" style="animation-delay:0.64s">298</text>
<text x="0" y="157" class="t" font-size="12.5" fill="#1B1B1F">Zymedics</text>
<rect x="132" y="145" width="634" height="15" rx="1.5" fill="#F1F1F4"/>
<rect class="bar" x="132" y="145" width="398" height="15" rx="1.5" fill="#E0788A" style="animation-delay:0.18s"/>
<text class="val t" x="540" y="157" font-size="12" fill="#6B6A66" style="animation-delay:0.73s">290</text>
<text x="0" y="191" class="t" font-size="12.5" fill="#1B1B1F">Credorz</text>
<rect x="132" y="179" width="634" height="15" rx="1.5" fill="#F1F1F4"/>
<rect class="bar" x="132" y="179" width="118" height="15" rx="1.5" fill="#E0788A" style="animation-delay:0.27s"/>
<text class="val t" x="260" y="191" font-size="12" fill="#6B6A66" style="animation-delay:0.82s">86</text>
<text x="0" y="225" class="t" font-size="12.5" fill="#1B1B1F">DataZonn</text>
<rect x="132" y="213" width="634" height="15" rx="1.5" fill="#F1F1F4"/>
<rect class="bar" x="132" y="213" width="51" height="15" rx="1.5" fill="#E0788A" style="animation-delay:0.36s"/>
<text class="val t" x="193" y="225" font-size="12" fill="#6B6A66" style="animation-delay:0.91s">37</text>
<text x="0" y="259" class="t" font-size="12.5" fill="#1B1B1F">Takafulik</text>
<rect x="132" y="247" width="634" height="15" rx="1.5" fill="#F1F1F4"/>
<rect class="bar" x="132" y="247" width="10" height="15" rx="1.5" fill="#E0788A" style="animation-delay:0.45s"/>
<text class="val t" x="152" y="259" font-size="12" fill="#6B6A66" style="animation-delay:1.00s">7</text>
</svg>